<svg width="32" height="32" viewBox="0 0 32 32" fill="none" xmlns="http://www.w3.org/2000/svg">
<path d="M26.5066 16.0142C26.5066 16.8332 25.8427 17.497 25.0238 17.497C24.2049 17.497 23.541 16.8332 23.541 16.0142C23.541 15.1953 24.2049 14.5314 25.0238 14.5314C25.8427 14.5314 26.5066 15.1953 26.5066 16.0142Z" fill="url(#paint0_linear_24_26)"/>
<path d="M6 14.7758C6.91103 14.6809 7.6038 14.4057 8.07829 13.9502C8.57177 13.4947 8.81851 12.8968 8.81851 12.1566C8.81851 11.4733 8.74259 10.2206 8.59075 8.39858C8.41993 6.69039 8.33452 5.32384 8.33452 4.29893C8.33452 2.95136 8.72361 1.89798 9.50178 1.13879C10.2989 0.379597 11.3428 0 12.6335 0H14.5409V2.81851H13.2883C12.6809 2.81851 12.2254 2.96085 11.9217 3.24555C11.637 3.51127 11.4947 3.94781 11.4947 4.55516C11.4947 5.01068 11.5231 5.61803 11.5801 6.37723C11.637 7.13642 11.675 7.67734 11.694 8C11.8648 9.74615 11.9502 11.1696 11.9502 12.2705C11.9502 13.2384 11.7034 14.0451 11.21 14.6904C10.7355 15.3357 9.99526 15.7628 8.98932 15.9715V16.0285C9.99526 16.2372 10.7355 16.6643 11.21 17.3096C11.7034 17.9549 11.9502 18.7616 11.9502 19.7295C11.9502 20.8304 11.8648 22.2539 11.694 24C11.675 24.3227 11.637 24.8636 11.5801 25.6228C11.5231 26.382 11.4947 26.9893 11.4947 27.4448C11.4947 28.0522 11.637 28.4887 11.9217 28.7544C12.2254 29.0391 12.6809 29.1815 13.2883 29.1815H14.5409V32H12.6335C11.3428 32 10.2989 31.6204 9.50178 30.8612C8.72361 30.102 8.33452 29.0486 8.33452 27.7011C8.33452 26.6762 8.41993 25.3096 8.59075 23.6014C8.74259 21.7794 8.81851 20.5267 8.81851 19.8434C8.81851 19.1032 8.57177 18.5053 8.07829 18.0498C7.6038 17.5943 6.91103 17.3191 6 17.2242V14.7758Z" fill="url(#paint1_linear_24_26)"/>
<defs>
<linearGradient id="paint0_linear_24_26" x1="25.0238" y1="14.5314" x2="25.0238" y2="17.497" gradientUnits="userSpaceOnUse">
<stop stop-color="#4FADF1"/>
<stop offset="1" stop-color="#1920C9"/>
</linearGradient>
<linearGradient id="paint1_linear_24_26" x1="10.2705" y1="0" x2="10.2705" y2="32" gradientUnits="userSpaceOnUse">
<stop stop-color="#4FADF1"/>
<stop offset="1" stop-color="#1920C9"/>
</linearGradient>
</defs>
</svg>
