<svg width="30" height="30" viewBox="0 0 30 30" fill="none" xmlns="http://www.w3.org/2000/svg">
<path d="M15 27.5C13.2708 27.5 11.6458 27.1719 10.125 26.5156C8.60417 25.8594 7.28125 24.9688 6.15625 23.8438C5.03125 22.7188 4.14062 21.3958 3.48437 19.875C2.82812 18.3542 2.5 16.7292 2.5 15C2.5 13.2708 2.82812 11.6458 3.48437 10.125C4.14062 8.60417 5.03125 7.28125 6.15625 6.15625C7.28125 5.03125 8.60417 4.14062 10.125 3.48437C11.6458 2.82812 13.2708 2.5 15 2.5C16.7292 2.5 18.3542 2.82812 19.875 3.48437C21.3958 4.14062 22.7188 5.03125 23.8438 6.15625C24.9688 7.28125 25.8594 8.60417 26.5156 10.125C27.1719 11.6458 27.5 13.2708 27.5 15V16.6562C27.5 17.8229 27.0885 18.8073 26.2656 19.6094C25.4427 20.4115 24.4375 20.8125 23.25 20.8125C22.5 20.8125 21.7917 20.6302 21.125 20.2656C20.4583 19.901 19.9479 19.3854 19.5938 18.7188C19.0521 19.4271 18.375 19.9531 17.5625 20.2969C16.75 20.6406 15.8958 20.8125 15 20.8125C13.375 20.8125 11.9948 20.25 10.8594 19.125C9.72396 18 9.15625 16.625 9.15625 15C9.15625 13.375 9.72396 11.9896 10.8594 10.8438C11.9948 9.69792 13.375 9.125 15 9.125C16.625 9.125 18.0052 9.69792 19.1406 10.8438C20.276 11.9896 20.8438 13.375 20.8438 15V16.6562C20.8438 17.3021 21.0781 17.8438 21.5469 18.2812C22.0156 18.7188 22.5833 18.9375 23.25 18.9375C23.8958 18.9375 24.4531 18.7188 24.9219 18.2812C25.3906 17.8438 25.625 17.3021 25.625 16.6562V15C25.625 12.0417 24.5938 9.53125 22.5312 7.46875C20.4688 5.40625 17.9583 4.375 15 4.375C12.0417 4.375 9.53125 5.40625 7.46875 7.46875C5.40625 9.53125 4.375 12.0417 4.375 15C4.375 17.9583 5.40625 20.4688 7.46875 22.5312C9.53125 24.5938 12.0417 25.625 15 25.625H20.75C21.0208 25.625 21.2448 25.7135 21.4219 25.8906C21.599 26.0677 21.6875 26.2917 21.6875 26.5625C21.6875 26.8333 21.599 27.0573 21.4219 27.2344C21.2448 27.4115 21.0208 27.5 20.75 27.5H15ZM15 18.9375C16.1042 18.9375 17.0417 18.5573 17.8125 17.7969C18.5833 17.0365 18.9688 16.1042 18.9688 15C18.9688 13.875 18.5833 12.9271 17.8125 12.1562C17.0417 11.3854 16.1042 11 15 11C13.8958 11 12.9583 11.3854 12.1875 12.1562C11.4167 12.9271 11.0312 13.875 11.0312 15C11.0312 16.1042 11.4167 17.0365 12.1875 17.7969C12.9583 18.5573 13.8958 18.9375 15 18.9375Z" fill="url(#paint0_linear_21_202)"/>
<defs>
<linearGradient id="paint0_linear_21_202" x1="15" y1="2.5" x2="15" y2="27.5" gradientUnits="userSpaceOnUse">
<stop stop-color="#4FADF1"/>
<stop offset="1" stop-color="#1920C9"/>
</linearGradient>
</defs>
</svg>
