<svg width="30" height="30" viewBox="0 0 30 30" fill="none" xmlns="http://www.w3.org/2000/svg">
<path d="M8.4375 17.5312H16.375C16.625 17.5312 16.8385 17.4427 17.0156 17.2656C17.1927 17.0885 17.2812 16.8646 17.2812 16.5938C17.2812 16.3229 17.1927 16.099 17.0156 15.9219C16.8385 15.7448 16.6146 15.6562 16.3438 15.6562H8.40625C8.15625 15.6562 7.94271 15.7448 7.76562 15.9219C7.58854 16.099 7.5 16.3229 7.5 16.5938C7.5 16.8646 7.58854 17.0885 7.76562 17.2656C7.94271 17.4427 8.16667 17.5312 8.4375 17.5312ZM8.4375 13.4688H21.5938C21.8438 13.4688 22.0573 13.3802 22.2344 13.2031C22.4115 13.026 22.5 12.8021 22.5 12.5312C22.5 12.2604 22.4115 12.0365 22.2344 11.8594C22.0573 11.6823 21.8333 11.5938 21.5625 11.5938H8.40625C8.15625 11.5938 7.94271 11.6823 7.76562 11.8594C7.58854 12.0365 7.5 12.2604 7.5 12.5312C7.5 12.8021 7.58854 13.026 7.76562 13.2031C7.94271 13.3802 8.16667 13.4688 8.4375 13.4688ZM8.4375 9.40625H21.5938C21.8438 9.40625 22.0573 9.31771 22.2344 9.14062C22.4115 8.96354 22.5 8.73958 22.5 8.46875C22.5 8.19792 22.4115 7.97396 22.2344 7.79688C22.0573 7.61979 21.8333 7.53125 21.5625 7.53125H8.40625C8.15625 7.53125 7.94271 7.61979 7.76562 7.79688C7.58854 7.97396 7.5 8.19792 7.5 8.46875C7.5 8.73958 7.58854 8.96354 7.76562 9.14062C7.94271 9.31771 8.16667 9.40625 8.4375 9.40625ZM2.5 25.25V4.375C2.5 3.89583 2.6875 3.46354 3.0625 3.07813C3.4375 2.69271 3.875 2.5 4.375 2.5H25.625C26.1042 2.5 26.5365 2.69271 26.9219 3.07813C27.3073 3.46354 27.5 3.89583 27.5 4.375V20.625C27.5 21.1042 27.3073 21.5365 26.9219 21.9219C26.5365 22.3073 26.1042 22.5 25.625 22.5H7.5L4.09375 25.9062C3.80208 26.1979 3.46354 26.2656 3.07813 26.1094C2.69271 25.9531 2.5 25.6667 2.5 25.25Z" fill="url(#paint0_linear_21_196)"/>
<defs>
<linearGradient id="paint0_linear_21_196" x1="15" y1="2.5" x2="15" y2="26.1911" gradientUnits="userSpaceOnUse">
<stop stop-color="#4FADF1"/>
<stop offset="1" stop-color="#1920C9"/>
</linearGradient>
</defs>
</svg>
