<svg width="30" height="30" viewBox="0 0 30 30" fill="none" xmlns="http://www.w3.org/2000/svg">
<path d="M4.375 25C3.875 25 3.4375 24.8125 3.0625 24.4375C2.6875 24.0625 2.5 23.625 2.5 23.125V6.875C2.5 6.375 2.6875 5.9375 3.0625 5.5625C3.4375 5.1875 3.875 5 4.375 5H25.625C26.125 5 26.5625 5.1875 26.9375 5.5625C27.3125 5.9375 27.5 6.375 27.5 6.875V23.125C27.5 23.625 27.3125 24.0625 26.9375 24.4375C26.5625 24.8125 26.125 25 25.625 25H4.375ZM15 15.375C15.1042 15.375 15.1927 15.3594 15.2656 15.3281C15.3385 15.2969 15.4167 15.2604 15.5 15.2188L25.3125 8.8125C25.4167 8.75 25.4948 8.66667 25.5469 8.5625C25.599 8.45833 25.625 8.34375 25.625 8.21875C25.625 7.94792 25.5052 7.73438 25.2656 7.57812C25.026 7.42188 24.7812 7.42708 24.5312 7.59375L15 13.6875L5.5 7.59375C5.25 7.42708 5 7.41667 4.75 7.5625C4.5 7.70833 4.375 7.91667 4.375 8.1875C4.375 8.3125 4.40625 8.43229 4.46875 8.54688C4.53125 8.66146 4.60417 8.75 4.6875 8.8125L14.5 15.2188C14.5833 15.2604 14.6615 15.2969 14.7344 15.3281C14.8073 15.3594 14.8958 15.375 15 15.375Z" fill="url(#paint0_linear_21_194)"/>
<defs>
<linearGradient id="paint0_linear_21_194" x1="15" y1="5" x2="15" y2="25" gradientUnits="userSpaceOnUse">
<stop stop-color="#4FADF1"/>
<stop offset="1" stop-color="#1920C9"/>
</linearGradient>
</defs>
</svg>
