<svg width="29" height="109" viewBox="0 0 29 109" fill="none" xmlns="http://www.w3.org/2000/svg">
<path d="M0.0959473 49.968C3.16795 49.648 5.50395 48.72 7.10395 47.184C8.76795 45.648 9.59995 43.632 9.59995 41.136C9.59995 38.832 9.34395 34.608 8.83195 28.464C8.25595 22.704 7.96795 18.096 7.96795 14.64C7.96795 10.096 9.27995 6.54398 11.9039 3.98398C14.5919 1.42398 18.1119 0.143982 22.4639 0.143982H28.896V9.64799H24.6719C22.6239 9.64799 21.0879 10.128 20.0639 11.088C19.1039 11.984 18.6239 13.456 18.6239 15.504C18.6239 17.04 18.7199 19.088 18.9119 21.648C19.1039 24.208 19.2319 26.032 19.2959 27.12C19.8719 33.008 20.1599 37.808 20.1599 41.52C20.1599 44.784 19.3279 47.504 17.6639 49.68C16.0639 51.856 13.5679 53.296 10.1759 54V54.192C13.5679 54.896 16.0639 56.336 17.6639 58.512C19.3279 60.688 20.1599 63.408 20.1599 66.672C20.1599 70.384 19.8719 75.184 19.2959 81.072C19.2319 82.16 19.1039 83.984 18.9119 86.544C18.7199 89.104 18.6239 91.152 18.6239 92.688C18.6239 94.736 19.1039 96.208 20.0639 97.104C21.0879 98.064 22.6239 98.544 24.6719 98.544H28.896V108.048H22.4639C18.1119 108.048 14.5919 106.768 11.9039 104.208C9.27995 101.648 7.96795 98.096 7.96795 93.552C7.96795 90.096 8.25595 85.488 8.83195 79.728C9.34395 73.584 9.59995 69.36 9.59995 67.056C9.59995 64.56 8.76795 62.544 7.10395 61.008C5.50395 59.472 3.16795 58.544 0.0959473 58.224V49.968Z" fill="url(#paint0_linear_23_14)"/>
<defs>
<linearGradient id="paint0_linear_23_14" x1="14.4959" y1="0.143982" x2="14.4959" y2="108.048" gradientUnits="userSpaceOnUse">
<stop stop-color="#4FADF1"/>
<stop offset="1" stop-color="#1920C9"/>
</linearGradient>
</defs>
</svg>
