<svg width="50" height="40" viewBox="0 0 50 40" fill="none" xmlns="http://www.w3.org/2000/svg">
<path d="M10 5C10 2.23858 7.76142 0 5 0C2.23858 0 0 2.23858 0 5C0 7.76142 2.23858 10 5 10C7.76142 10 10 7.76142 10 5Z" fill="url(#paint0_linear_31_135)"/>
<path d="M50 5C50 2.23858 47.7614 0 45 0C42.2386 0 40 2.23858 40 5C40 7.76142 42.2386 10 45 10C47.7614 10 50 7.76142 50 5Z" fill="url(#paint1_linear_31_135)"/>
<path d="M10 35C10 37.7614 7.76142 40 5 40C2.23858 40 0 37.7614 0 35C0 32.2386 2.23858 30 5 30C7.76142 30 10 32.2386 10 35Z" fill="url(#paint2_linear_31_135)"/>
<path d="M50 35C50 37.7614 47.7614 40 45 40C42.2386 40 40 37.7614 40 35C40 32.2386 42.2386 30 45 30C47.7614 30 50 32.2386 50 35Z" fill="url(#paint3_linear_31_135)"/>
<defs>
<linearGradient id="paint0_linear_31_135" x1="25" y1="0" x2="25" y2="40" gradientUnits="userSpaceOnUse">
<stop stop-color="#4FADF1"/>
<stop offset="1" stop-color="#1920C9"/>
</linearGradient>
<linearGradient id="paint1_linear_31_135" x1="25" y1="0" x2="25" y2="40" gradientUnits="userSpaceOnUse">
<stop stop-color="#4FADF1"/>
<stop offset="1" stop-color="#1920C9"/>
</linearGradient>
<linearGradient id="paint2_linear_31_135" x1="25" y1="0" x2="25" y2="40" gradientUnits="userSpaceOnUse">
<stop stop-color="#4FADF1"/>
<stop offset="1" stop-color="#1920C9"/>
</linearGradient>
<linearGradient id="paint3_linear_31_135" x1="25" y1="0" x2="25" y2="40" gradientUnits="userSpaceOnUse">
<stop stop-color="#4FADF1"/>
<stop offset="1" stop-color="#1920C9"/>
</linearGradient>
</defs>
</svg>
