<svg width="177" height="40" viewBox="0 0 177 40" fill="none" xmlns="http://www.w3.org/2000/svg">
<path d="M21.64 39L19.912 31.848H10.216L8.53601 39H0.376007L10.408 5.73602H19.96L29.992 39H21.64ZM11.56 26.136H18.568L15.064 11.448L11.56 26.136Z" fill="#141414"/>
<path d="M39.0565 39.816C36.8485 39.816 35.1205 39.192 33.8725 37.944C32.6565 36.664 32.0485 34.856 32.0485 32.52V3.38402L39.6325 2.56802V32.232C39.6325 33.288 40.0645 33.816 40.9285 33.816C41.3765 33.816 41.7925 33.736 42.1765 33.576L43.6645 38.952C42.2885 39.528 40.7525 39.816 39.0565 39.816Z" fill="#141414"/>
<path d="M68.5281 25.752C68.5281 26.808 68.4801 27.72 68.3841 28.488H52.5921C52.8481 30.632 53.4561 32.136 54.4161 33C55.3761 33.864 56.7041 34.296 58.4001 34.296C59.4241 34.296 60.4161 34.12 61.3761 33.768C62.3361 33.384 63.3761 32.808 64.4961 32.04L67.6161 36.264C64.6401 38.632 61.3281 39.816 57.6801 39.816C53.5521 39.816 50.3841 38.6 48.1761 36.168C45.9681 33.736 44.8641 30.472 44.8641 26.376C44.8641 23.784 45.3281 21.464 46.2561 19.416C47.1841 17.336 48.5441 15.704 50.3361 14.52C52.1281 13.304 54.2721 12.696 56.7681 12.696C60.4481 12.696 63.3281 13.848 65.4081 16.152C67.4881 18.456 68.5281 21.656 68.5281 25.752ZM61.0881 23.592C61.0241 19.688 59.6481 17.736 56.9601 17.736C55.6481 17.736 54.6241 18.216 53.8881 19.176C53.1841 20.136 52.7521 21.72 52.5921 23.928H61.0881V23.592Z" fill="#141414"/>
<path d="M86.0511 25.368L94.2591 39H85.6671L81.2511 29.448L76.9311 39H68.6751L76.8831 25.608L69.4911 13.512H77.9871L81.5391 21.672L84.9471 13.512H93.0111L86.0511 25.368Z" fill="#141414"/>
<path d="M104.326 13.512V39H96.7416V13.512H104.326ZM100.486 0.0720215C101.798 0.0720215 102.87 0.488022 103.702 1.32002C104.566 2.12002 104.998 3.14402 104.998 4.39202C104.998 5.64002 104.566 6.68002 103.702 7.51202C102.87 8.31202 101.798 8.71202 100.486 8.71202C99.1736 8.71202 98.1016 8.31202 97.2696 7.51202C96.4376 6.68002 96.0216 5.64002 96.0216 4.39202C96.0216 3.14402 96.4376 2.12002 97.2696 1.32002C98.1016 0.488022 99.1736 0.0720215 100.486 0.0720215Z" fill="#141414"/>
<path d="M119.265 12.696C121.089 12.696 122.801 12.968 124.401 13.512C126.001 14.056 127.409 14.824 128.625 15.816L125.841 20.088C123.761 18.776 121.665 18.12 119.553 18.12C118.561 18.12 117.793 18.296 117.249 18.648C116.737 18.968 116.481 19.432 116.481 20.04C116.481 20.52 116.593 20.92 116.817 21.24C117.073 21.528 117.569 21.832 118.305 22.152C119.041 22.472 120.177 22.856 121.713 23.304C124.369 24.072 126.337 25.08 127.617 26.328C128.929 27.544 129.585 29.24 129.585 31.416C129.585 33.144 129.089 34.648 128.097 35.928C127.105 37.176 125.745 38.136 124.017 38.808C122.289 39.48 120.369 39.816 118.257 39.816C116.113 39.816 114.113 39.48 112.257 38.808C110.433 38.136 108.881 37.208 107.601 36.024L111.297 31.896C113.441 33.56 115.697 34.392 118.065 34.392C119.217 34.392 120.113 34.184 120.753 33.768C121.425 33.352 121.761 32.76 121.761 31.992C121.761 31.384 121.633 30.904 121.377 30.552C121.121 30.2 120.625 29.88 119.889 29.592C119.153 29.272 117.985 28.888 116.385 28.44C113.857 27.704 111.969 26.68 110.721 25.368C109.473 24.056 108.849 22.424 108.849 20.472C108.849 19 109.265 17.688 110.097 16.536C110.961 15.352 112.177 14.424 113.745 13.752C115.345 13.048 117.185 12.696 119.265 12.696Z" fill="#141414"/>
<path d="M169.938 5.73602L160.674 39H150.882L141.282 5.73602H149.586L155.922 32.856L161.874 5.73602H169.938Z" fill="#141414"/>
<path d="M172.651 31.128C173.835 31.128 174.843 31.56 175.675 32.424C176.539 33.256 176.971 34.264 176.971 35.448C176.971 36.664 176.539 37.704 175.675 38.568C174.843 39.4 173.835 39.816 172.651 39.816C171.435 39.816 170.395 39.4 169.531 38.568C168.699 37.704 168.283 36.664 168.283 35.448C168.283 34.264 168.699 33.256 169.531 32.424C170.395 31.56 171.435 31.128 172.651 31.128Z" fill="#141414"/>
</svg>
